<svg width="366" height="402" viewBox="0 0 366 402" fill="none" xmlns="http://www.w3.org/2000/svg">
<path d="M109.81 0.072937H0.0158691V33.5635H109.81V0.072937Z" fill="#666666" fill-opacity="0.05"/>
<path d="M36.6022 100.534V0.072937H0V100.534H36.6022Z" fill="#666666" fill-opacity="0.05"/>
<path d="M109.81 368.425H0.0158691V401.915H109.81V368.425Z" fill="#666666" fill-opacity="0.05"/>
<path d="M0.0158691 301.456V401.916H36.6181V301.456H0.0158691Z" fill="#666666" fill-opacity="0.05"/>
<path d="M0.0158691 201.005V267.975H36.6181V201.005H0.0158691Z" fill="#666666" fill-opacity="0.05"/>
<path d="M18.3136 166.934C28.2457 166.934 36.2971 159.567 36.2971 150.479C36.2971 141.392 28.2457 134.025 18.3136 134.025C8.38168 134.025 0.3302 141.392 0.3302 150.479C0.3302 159.567 8.38168 166.934 18.3136 166.934Z" fill="#666666" fill-opacity="0.05"/>
<path d="M256.204 401.927H365.998V368.436H256.204V401.927Z" fill="#666666" fill-opacity="0.05"/>
<path d="M329.398 301.467V401.927H366V301.467H329.398Z" fill="#666666" fill-opacity="0.05"/>
<path d="M256.204 33.5643H365.998V0.0737305H256.204V33.5643Z" fill="#666666" fill-opacity="0.05"/>
<path d="M365.989 100.534V0.072937H329.386V100.534H365.989Z" fill="#666666" fill-opacity="0.05"/>
<path d="M365.989 200.982V134.012H329.386V200.982H365.989Z" fill="#666666" fill-opacity="0.05"/>
<path d="M347.7 267.964C357.633 267.964 365.684 260.597 365.684 251.509C365.684 242.422 357.633 235.054 347.7 235.054C337.768 235.054 329.717 242.422 329.717 251.509C329.717 260.597 337.768 267.964 347.7 267.964Z" fill="#666666" fill-opacity="0.05"/>
</svg>
