<svg width="200" height="200" viewBox="0 0 200 200" fill="none" xmlns="http://www.w3.org/2000/svg">
<path d="M37.6166 90.7353C37.6166 90.7353 65.3101 89.6263 71.2947 44.1041C76.6091 3.67596 123.308 22.0774 136.806 38.193C154.293 59.0694 144.971 94.9812 167.592 99.5179C190.213 104.055 175.441 154.495 141.104 149.667C98.3897 143.661 108.724 168.621 95.9016 179.185C86.6991 186.768 48.9654 179.469 47.7078 151.945C46.6495 128.784 36.8797 128.857 29.9548 126.231C19.9674 122.443 13.6744 95.0123 37.6166 90.7353Z" fill="#DEE9FF"/>
<path d="M131.759 141.291L104.551 114.405L99.1633 119.858L126.371 146.743L131.759 141.291Z" fill="#699CFF"/>
<path d="M142.152 148.515L120.985 127.598C120.867 127.481 120.677 127.483 120.56 127.6L112.548 135.708C112.432 135.826 112.433 136.016 112.551 136.133L133.719 157.049C133.837 157.166 134.027 157.165 134.143 157.047L142.155 148.939C142.271 148.821 142.27 148.631 142.152 148.515Z" fill="#0E84E5"/>
<path d="M80.4363 127.927C99.1546 127.927 114.329 112.752 114.329 94.0341C114.329 75.3158 99.1546 60.1416 80.4363 60.1416C61.718 60.1416 46.5438 75.3158 46.5438 94.0341C46.5438 112.752 61.718 127.927 80.4363 127.927Z" fill="#0E84E5"/>
<path d="M80.4363 122.397C96.1003 122.397 108.799 109.698 108.799 94.0342C108.799 78.3702 96.1003 65.6719 80.4363 65.6719C64.7722 65.6719 52.074 78.3702 52.074 94.0342C52.074 109.698 64.7722 122.397 80.4363 122.397Z" fill="#D4E5FF"/>
<path d="M137.736 63.3951C129.785 60.8182 121.194 65.1765 118.607 73.1592C116.03 81.1092 120.388 89.7007 128.371 92.288C136.354 94.8753 144.923 90.4743 147.5 82.5239C150.078 74.5735 145.686 65.9719 137.736 63.3951ZM135.337 70.7961C136.227 71.0845 137.011 71.6308 137.59 72.3655C138.169 73.1002 138.516 73.9904 138.589 74.923C138.661 75.8557 138.455 76.7888 137.996 77.604C137.537 78.4193 136.847 79.08 136.012 79.5022C135.178 79.9245 134.236 80.0894 133.308 79.9759C132.379 79.8624 131.505 79.4757 130.797 78.8649C130.088 78.254 129.577 77.4465 129.328 76.5448C129.079 75.6431 129.104 74.6877 129.399 73.8C130.195 71.3438 132.88 70 135.337 70.7961ZM129.334 89.3147C126.693 88.4629 124.43 86.7195 122.933 84.3828C125.735 82.7909 128.664 82.3475 131.314 83.2065C133.964 84.0655 136.12 86.121 137.412 89.0756C134.829 90.0898 131.973 90.1743 129.334 89.3147Z" fill="#418DF9"/>
<path d="M71.5652 135.84C70.1843 136.545 69.0434 137.643 68.2869 138.997C67.5303 140.35 67.192 141.897 67.3148 143.443C67.4375 144.988 68.0158 146.462 68.9765 147.679C69.9373 148.896 71.2372 149.801 72.7121 150.279C74.1869 150.757 75.7704 150.787 77.2622 150.365C78.7541 149.943 80.0873 149.088 81.0933 147.908C82.0994 146.729 82.733 145.277 82.9141 143.738C83.0952 142.198 82.8156 140.639 82.1108 139.258C81.1639 137.408 79.5218 136.009 77.5448 135.368C75.5678 134.727 73.4173 134.897 71.5652 135.84ZM73.391 139.417C73.8211 139.197 74.3067 139.11 74.7862 139.167C75.2657 139.224 75.7176 139.422 76.0844 139.736C76.4513 140.05 76.7166 140.466 76.8467 140.931C76.9769 141.396 76.966 141.889 76.8154 142.348C76.6648 142.807 76.3814 143.211 76.001 143.508C75.6206 143.806 75.1605 143.983 74.6789 144.019C74.1973 144.054 73.716 143.946 73.2961 143.708C72.8761 143.469 72.5364 143.112 72.3201 142.68C72.0333 142.105 71.9849 141.439 72.1854 140.828C72.3859 140.218 72.819 139.71 73.391 139.417V139.417ZM77.9593 148.367C76.6844 149.02 75.2221 149.21 73.8228 148.903C74.2643 147.3 75.1717 146.069 76.4528 145.415C77.7339 144.761 79.2704 144.725 80.8205 145.331C80.2476 146.644 79.2362 147.717 77.9593 148.366V148.367Z" fill="#418DF9"/>
</svg>
